<?xml version="1.0" encoding="UTF-8"?> <svg xmlns="http://www.w3.org/2000/svg" viewBox="0 0 50 40" width="50" height="40" role="img" aria-label="CoSoSo"><g transform="scale(0.25)"><defs><radialGradient id="ovalFill" cx="35%" cy="30%" r="80%"><stop offset="0%" stop-color="#6275df"></stop><stop offset="60%" stop-color="#3340a8"></stop><stop offset="100%" stop-color="#1a1f6e"></stop></radialGradient><filter id="dropShadow" x="-10%" y="-10%" width="120%" height="120%"><feGaussianBlur in="SourceAlpha" stdDeviation="1.5"></feGaussianBlur><feOffset dx="0" dy="1.5"></feOffset><feComponentTransfer><feFuncA type="linear" slope="0.35"></feFuncA></feComponentTransfer><feMerge><feMergeNode></feMergeNode><feMergeNode in="SourceGraphic"></feMergeNode></feMerge></filter></defs><ellipse cx="100" cy="80" rx="92" ry="72" fill="url(#ovalFill)" stroke="#0e1148" stroke-width="2" filter="url(#dropShadow)"></ellipse><g transform="translate(100 80) scale(0.92 1.08) translate(-100 -80)"><path d="M110.62 110.15L110.62 125.11Q104.22 127.95 99.48 129Q94.73 130.05 88.70 130.75Q82.67 131.44 76.80 131.44L76.80 131.44Q51.22 131.44 38.63 117.00Q26.04 102.57 26.04 80.22L26.04 80.22Q26.04 57.74 38.60 43.37Q51.16 29.00 78.05 29.00L78.05 29.00Q93.94 29.00 109.69 32.76L109.69 32.76L109.69 48.65Q102.11 46.01 97.30 44.79Q92.49 43.57 88.17 42.98Q83.85 42.38 79.57 42.38L79.57 42.38Q62.76 42.38 55.18 53.19Q47.60 64.00 47.60 79.96L47.60 79.96Q47.60 96.70 56.20 107.05Q64.80 117.40 81.81 117.40L81.81 117.40Q95.98 117.40 110.62 110.15L110.62 110.15Z" fill="#ffffff" stroke="#ffffff" stroke-width="3" stroke-linejoin="round" paint-order="stroke fill"></path><path d="M55.16 128.14L55.16 128.14L55.16 111.40Q66.43 116.15 72.00 117.07Q77.57 117.99 82.25 117.99L82.25 117.99Q90.69 117.99 94.84 114.17Q99.00 110.35 99.00 105.01L99.00 105.01Q99.00 100.92 96.76 97.62L96.76 97.62Q94.51 94.39 85.42 89.25L85.42 89.25L78.89 85.63Q64.92 77.78 59.97 71.12L59.97 71.12Q54.96 64.47 54.96 55.70L54.96 55.70Q54.96 44.69 63.30 36.85Q71.64 29.00 87.26 29.00L87.26 29.00Q98.93 29.00 113.56 32.36L113.56 32.36L113.56 47.99Q98.67 42.38 89.90 42.38L89.90 42.38Q82.65 42.38 78.86 45.58Q75.07 48.78 75.07 53.26L75.07 53.26Q75.07 56.69 77.31 59.65L77.31 59.65Q79.49 62.62 88.58 67.76L88.58 67.76L95.57 71.65Q111.59 80.68 116.00 87.34L116.00 87.34Q120.35 94.06 120.35 102.44L120.35 102.44Q120.35 114.43 111.29 122.94Q102.23 131.44 82.45 131.44L82.45 131.44Q70.72 131.44 55.16 128.14Z" fill="#ffffff" stroke="#ffffff" stroke-width="3" stroke-linejoin="round" paint-order="stroke fill"></path><path d="M100.16 128.14L100.16 128.14L100.16 111.40Q111.43 116.15 117.00 117.07Q122.57 117.99 127.25 117.99L127.25 117.99Q135.69 117.99 139.84 114.17Q144.00 110.35 144.00 105.01L144.00 105.01Q144.00 100.92 141.76 97.62L141.76 97.62Q139.51 94.39 130.42 89.25L130.42 89.25L123.89 85.63Q109.92 77.78 104.97 71.12L104.97 71.12Q99.96 64.47 99.96 55.70L99.96 55.70Q99.96 44.69 108.30 36.85Q116.64 29.00 132.26 29.00L132.26 29.00Q143.93 29.00 158.56 32.36L158.56 32.36L158.56 47.99Q143.67 42.38 134.90 42.38L134.90 42.38Q127.65 42.38 123.86 45.58Q120.07 48.78 120.07 53.26L120.07 53.26Q120.07 56.69 122.31 59.65L122.31 59.65Q124.49 62.62 133.58 67.76L133.58 67.76L140.57 71.65Q156.59 80.68 161.00 87.34L161.00 87.34Q165.35 94.06 165.35 102.44L165.35 102.44Q165.35 114.43 156.29 122.94Q147.23 131.44 127.45 131.44L127.45 131.44Q115.72 131.44 100.16 128.14Z" fill="#ffffff" stroke="#ffffff" stroke-width="3" stroke-linejoin="round" paint-order="stroke fill"></path></g></g></svg> 