<svg xmlns="http://www.w3.org/2000/svg" viewBox="0 0 1280 640" width="1280" height="640"><rect width="1280" height="640" fill="#ffffff"/><defs><filter id="cs" x="-25%" y="-25%" width="150%" height="150%"><feGaussianBlur in="SourceAlpha" stdDeviation="5"/><feOffset dx="0" dy="5"/><feComponentTransfer><feFuncA type="linear" slope="0.25"/></feComponentTransfer><feMerge><feMergeNode/><feMergeNode in="SourceGraphic"/></feMerge></filter></defs><g filter="url(#cs)"><polygon points="153.06,337.11 153.06,193.83 248.87,225.30 248.87,368.58" fill="#741b47" stroke="#ffffff" stroke-width="2" stroke-linejoin="round"/><polygon points="363.06,342.17 248.87,368.58 248.87,225.30 363.06,198.89" fill="#073763" stroke="#ffffff" stroke-width="2" stroke-linejoin="round"/><polygon points="267.24,167.42 363.06,198.89 248.87,225.30 153.06,193.83" fill="#ff9900" stroke="#ffffff" stroke-width="2" stroke-linejoin="round"/></g><path transform="translate(418.056 310.000) scale(0.12800 -0.12800)" d="M253 -8Q184 -8 120.5 8.5Q57 25 20 50L72 162Q109 139 159.5 124.5Q210 110 259 110Q313 110 335.5 123.0Q358 136 358 159Q358 178 340.5 187.5Q323 197 294.0 202.0Q265 207 230.5 212.0Q196 217 161.0 225.5Q126 234 97.0 251.0Q68 268 50.5 297.0Q33 326 33 372Q33 423 62.5 462.0Q92 501 148.0 523.5Q204 546 282 546Q337 546 394.0 534.0Q451 522 489 499L437 388Q398 411 358.5 419.5Q319 428 282 428Q230 428 206.0 414.0Q182 400 182 378Q182 358 199.5 348.0Q217 338 246.0 332.0Q275 326 309.5 321.5Q344 317 379.0 308.0Q414 299 442.5 282.5Q471 266 489.0 237.5Q507 209 507 163Q507 113 477.0 74.5Q447 36 390.5 14.0Q334 -8 253 -8Z" fill="#073763"/><path transform="translate(483.024 310.000) scale(0.12800 -0.12800)" d="M328 -8Q242 -8 175.5 28.0Q109 64 70.5 126.5Q32 189 32 269Q32 350 70.5 412.5Q109 475 175.5 510.5Q242 546 328 546Q413 546 480.0 510.5Q547 475 585.0 413.0Q623 351 623 269Q623 189 585.0 126.5Q547 64 480.0 28.0Q413 -8 328 -8ZM328 120Q367 120 398.0 138.0Q429 156 447.0 189.5Q465 223 465 269Q465 316 447.0 349.0Q429 382 398.0 400.0Q367 418 328 418Q289 418 258.0 400.0Q227 382 208.5 349.0Q190 316 190 269Q190 223 208.5 189.5Q227 156 258.0 138.0Q289 120 328 120Z" fill="#073763"/><path transform="translate(563.864 310.000) scale(0.12800 -0.12800)" d="M72 0V742H228V0Z" fill="#073763"/><path transform="translate(599.392 310.000) scale(0.12800 -0.12800)" d="M72 0V538H228V0ZM150 613Q107 613 80.0 638.0Q53 663 53 700Q53 737 80.0 762.0Q107 787 150 787Q193 787 220.0 763.5Q247 740 247 703Q247 664 220.5 638.5Q194 613 150 613Z" fill="#073763"/><path transform="translate(634.920 310.000) scale(0.12800 -0.12800)" d="M303 -8Q227 -8 166.0 26.5Q105 61 69.5 123.0Q34 185 34 269Q34 354 69.5 416.0Q105 478 166.0 512.0Q227 546 303 546Q371 546 422 516Q445 502 464 482V742H620V0H471V62Q451 38 425 22Q374 -8 303 -8ZM330 120Q368 120 399.0 138.0Q430 156 448.5 189.5Q467 223 467 269Q467 316 448.5 349.0Q430 382 399.0 400.0Q368 418 330 418Q291 418 260.0 400.0Q229 382 210.5 349.0Q192 316 192 269Q192 223 210.5 189.5Q229 156 260.0 138.0Q291 120 330 120Z" fill="#073763"/><path transform="translate(720.496 310.000) scale(0.12800 -0.12800)" d="M253 -8Q184 -8 120.5 8.5Q57 25 20 50L72 162Q109 139 159.5 124.5Q210 110 259 110Q313 110 335.5 123.0Q358 136 358 159Q358 178 340.5 187.5Q323 197 294.0 202.0Q265 207 230.5 212.0Q196 217 161.0 225.5Q126 234 97.0 251.0Q68 268 50.5 297.0Q33 326 33 372Q33 423 62.5 462.0Q92 501 148.0 523.5Q204 546 282 546Q337 546 394.0 534.0Q451 522 489 499L437 388Q398 411 358.5 419.5Q319 428 282 428Q230 428 206.0 414.0Q182 400 182 378Q182 358 199.5 348.0Q217 338 246.0 332.0Q275 326 309.5 321.5Q344 317 379.0 308.0Q414 299 442.5 282.5Q471 266 489.0 237.5Q507 209 507 163Q507 113 477.0 74.5Q447 36 390.5 14.0Q334 -8 253 -8Z" fill="#2b2b33"/><path transform="translate(785.464 310.000) scale(0.12800 -0.12800)" d="M140 -202Q98 -202 57.0 -189.0Q16 -176 -10 -153L47 -42Q65 -58 88.5 -67.0Q112 -76 135 -76Q168 -76 187.5 -60.5Q207 -45 223 -9L225 -4L-8 538H153L304 173L456 538H606L363 -33Q337 -98 303.5 -135.0Q270 -172 229.5 -187.0Q189 -202 140 -202Z" fill="#2b2b33"/><path transform="translate(859.008 310.000) scale(0.12800 -0.12800)" d="M253 -8Q184 -8 120.5 8.5Q57 25 20 50L72 162Q109 139 159.5 124.5Q210 110 259 110Q313 110 335.5 123.0Q358 136 358 159Q358 178 340.5 187.5Q323 197 294.0 202.0Q265 207 230.5 212.0Q196 217 161.0 225.5Q126 234 97.0 251.0Q68 268 50.5 297.0Q33 326 33 372Q33 423 62.5 462.0Q92 501 148.0 523.5Q204 546 282 546Q337 546 394.0 534.0Q451 522 489 499L437 388Q398 411 358.5 419.5Q319 428 282 428Q230 428 206.0 414.0Q182 400 182 378Q182 358 199.5 348.0Q217 338 246.0 332.0Q275 326 309.5 321.5Q344 317 379.0 308.0Q414 299 442.5 282.5Q471 266 489.0 237.5Q507 209 507 163Q507 113 477.0 74.5Q447 36 390.5 14.0Q334 -8 253 -8Z" fill="#2b2b33"/><path transform="translate(923.976 310.000) scale(0.12800 -0.12800)" d="M72 0V742H228V0Z" fill="#2b2b33"/><path transform="translate(959.504 310.000) scale(0.12800 -0.12800)" d="M328 -8Q242 -8 175.5 28.0Q109 64 70.5 126.5Q32 189 32 269Q32 350 70.5 412.5Q109 475 175.5 510.5Q242 546 328 546Q413 546 480.0 510.5Q547 475 585.0 413.0Q623 351 623 269Q623 189 585.0 126.5Q547 64 480.0 28.0Q413 -8 328 -8ZM328 120Q367 120 398.0 138.0Q429 156 447.0 189.5Q465 223 465 269Q465 316 447.0 349.0Q429 382 398.0 400.0Q367 418 328 418Q289 418 258.0 400.0Q227 382 208.5 349.0Q190 316 190 269Q190 223 208.5 189.5Q227 156 258.0 138.0Q289 120 328 120Z" fill="#2b2b33"/><path transform="translate(1040.344 310.000) scale(0.12800 -0.12800)" d="M325 -202Q249 -202 178.5 -183.5Q108 -165 61 -128L123 -16Q157 -44 209.5 -60.5Q262 -77 313 -77Q396 -77 433.5 -40.0Q471 -3 471 70V93Q449 69 421 54Q369 26 301 26Q226 26 165.5 58.5Q105 91 68.5 149.5Q32 208 32 286Q32 365 68.5 423.5Q105 482 165.5 514.0Q226 546 301 546Q369 546 421 519Q455 501 479 470V538H627V90Q627 -60 549.0 -131.0Q471 -202 325 -202ZM332 154Q373 154 405.0 170.5Q437 187 455.0 217.0Q473 247 473 286Q473 326 455.0 355.5Q437 385 405.0 401.5Q373 418 332.0 418.0Q291 418 259.0 401.5Q227 385 208.5 355.5Q190 326 190 286Q190 247 208.5 217.0Q227 187 259.0 170.5Q291 154 332 154Z" fill="#2b2b33"/><path transform="translate(139.960 452.000) scale(0.03600 -0.03600)" d="M307 -6Q229 -6 157.5 19.5Q86 45 47 85L76 142Q113 106 175.5 81.5Q238 57 307 57Q373 57 414.5 73.5Q456 90 475.5 118.0Q495 146 495 180Q495 221 471.5 246.0Q448 271 410.0 285.5Q372 300 326.0 311.0Q280 322 234.0 334.5Q188 347 149.5 368.0Q111 389 87.5 423.5Q64 458 64 514Q64 566 91.5 609.5Q119 653 176.0 679.5Q233 706 322 706Q381 706 439.0 689.5Q497 673 539 644L514 585Q469 615 418.5 629.0Q368 643 321 643Q258 643 217.0 626.0Q176 609 156.5 580.5Q137 552 137 516Q137 475 160.5 450.0Q184 425 222.5 411.0Q261 397 307.0 386.0Q353 375 398.5 362.0Q444 349 482.5 328.5Q521 308 544.5 274.0Q568 240 568 185Q568 134 540.0 90.5Q512 47 454.5 20.5Q397 -6 307 -6Z" fill="#5a5a63"/><path transform="translate(162.100 452.000) scale(0.03600 -0.03600)" d="M265 -5Q191 -5 151.0 35.0Q111 75 111 148V466H17V525H111V641H182V525H342V466H182V152Q182 106 205.5 81.0Q229 56 273 56Q320 56 351 83L376 32Q355 13 325.5 4.0Q296 -5 265 -5Z" fill="#5a5a63"/><path transform="translate(176.716 452.000) scale(0.03600 -0.03600)" d="M99 0V525H167V424Q190 472 234 499Q286 530 363 530V461Q359 461 355.0 461.5Q351 462 347 462Q264 462 217.0 411.5Q170 361 170 268V0Z" fill="#5a5a63"/><path transform="translate(191.152 452.000) scale(0.03600 -0.03600)" d="M316 -5Q249 -5 199.0 20.0Q149 45 121.5 95.0Q94 145 94 220V525H165V228Q165 144 206.5 101.5Q248 59 323 59Q378 59 418.5 81.5Q459 104 480.5 147.0Q502 190 502 250V525H573V0H505V96Q481 54 439 28Q386 -5 316 -5Z" fill="#5a5a63"/><path transform="translate(215.344 452.000) scale(0.03600 -0.03600)" d="M317 -5Q239 -5 177.5 29.5Q116 64 81.0 124.5Q46 185 46 263Q46 342 81.0 402.0Q116 462 177.5 496.0Q239 530 317 530Q384 530 438.0 504.0Q492 478 523 426L470 390Q443 430 403.0 449.0Q363 468 316 468Q260 468 215.0 442.5Q170 417 144.0 371.0Q118 325 118 263Q118 201 144.0 155.0Q170 109 215.0 83.5Q260 58 316 58Q363 58 403.0 77.0Q443 96 470 135L523 99Q492 48 438.0 21.5Q384 -5 317 -5Z" fill="#5a5a63"/><path transform="translate(235.612 452.000) scale(0.03600 -0.03600)" d="M265 -5Q191 -5 151.0 35.0Q111 75 111 148V466H17V525H111V641H182V525H342V466H182V152Q182 106 205.5 81.0Q229 56 273 56Q320 56 351 83L376 32Q355 13 325.5 4.0Q296 -5 265 -5Z" fill="#5a5a63"/><path transform="translate(250.228 452.000) scale(0.03600 -0.03600)" d="M316 -5Q249 -5 199.0 20.0Q149 45 121.5 95.0Q94 145 94 220V525H165V228Q165 144 206.5 101.5Q248 59 323 59Q378 59 418.5 81.5Q459 104 480.5 147.0Q502 190 502 250V525H573V0H505V96Q481 54 439 28Q386 -5 316 -5Z" fill="#5a5a63"/><path transform="translate(274.420 452.000) scale(0.03600 -0.03600)" d="M99 0V525H167V424Q190 472 234 499Q286 530 363 530V461Q359 461 355.0 461.5Q351 462 347 462Q264 462 217.0 411.5Q170 361 170 268V0Z" fill="#5a5a63"/><path transform="translate(288.856 452.000) scale(0.03600 -0.03600)" d="M322 -5Q240 -5 178.0 29.5Q116 64 81.0 124.5Q46 185 46.0 263.0Q46 341 79.5 401.0Q113 461 171.5 495.5Q230 530 303 530Q377 530 434.5 496.5Q492 463 525.0 402.5Q558 342 558 263Q558 258 557.5 252.5Q557 247 557 241H116Q119 193 142 155Q168 109 215.5 83.5Q263 58 324 58Q372 58 413.5 75.0Q455 92 485 127L525 81Q490 39 437.5 17.0Q385 -5 322 -5ZM116 294H490Q486 338 467 375Q442 419 400.0 444.0Q358 469 303 469Q249 469 206.0 444.0Q163 419 139 374Q120 338 116 294Z" fill="#5a5a63"/><path transform="translate(310.600 452.000) scale(0.03600 -0.03600)" d="M308 -5Q233 -5 173.5 29.0Q114 63 80.0 123.5Q46 184 46 263Q46 343 80.0 403.0Q114 463 173.5 496.5Q233 530 308 530Q377 530 432 499Q478 473 508 426V742H579V0H511V104Q480 54 433 27Q378 -5 308 -5ZM313 58Q369 58 413.5 83.5Q458 109 483.5 155.5Q509 202 509 263Q509 325 483.5 371.0Q458 417 413.5 442.5Q369 468 313 468Q258 468 214.0 442.5Q170 417 144.0 371.0Q118 325 118 263Q118 202 144.0 155.5Q170 109 214.0 83.5Q258 58 313 58Z" fill="#5a5a63"/><path transform="translate(344.440 452.000) scale(0.03600 -0.03600)" d="M240 -5Q175 -5 117.0 13.5Q59 32 26 60L58 116Q90 92 140.0 74.5Q190 57 245 57Q320 57 353.0 80.5Q386 104 386 143Q386 172 367.5 188.5Q349 205 319.0 213.5Q289 222 252.0 228.0Q215 234 178.5 242.0Q142 250 112.0 265.5Q82 281 63.5 308.0Q45 335 45 380Q45 423 69.0 457.0Q93 491 139.5 510.5Q186 530 253 530Q304 530 355.0 516.5Q406 503 439 481L408 424Q373 448 333.0 458.5Q293 469 253 469Q182 469 148.5 444.5Q115 420 115 382Q115 352 133.5 335.0Q152 318 182.5 308.5Q213 299 249.5 293.0Q286 287 322.5 278.5Q359 270 389.5 255.5Q420 241 438.5 214.5Q457 188 457 145Q457 99 431.5 65.5Q406 32 357.5 13.5Q309 -5 240 -5Z" fill="#5a5a63"/><path transform="translate(362.008 452.000) scale(0.03600 -0.03600)" d="M103 -199Q66 -199 32.5 -187.0Q-1 -175 -25 -151L8 -98Q28 -117 51.5 -127.5Q75 -138 104 -138Q139 -138 164.5 -118.5Q190 -99 213 -50L236 1L1 525H75L273 79L471 525H541L278 -63Q256 -114 229.5 -144.0Q203 -174 172.0 -186.5Q141 -199 103 -199Z" fill="#5a5a63"/><path transform="translate(381.520 452.000) scale(0.03600 -0.03600)" d="M240 -5Q175 -5 117.0 13.5Q59 32 26 60L58 116Q90 92 140.0 74.5Q190 57 245 57Q320 57 353.0 80.5Q386 104 386 143Q386 172 367.5 188.5Q349 205 319.0 213.5Q289 222 252.0 228.0Q215 234 178.5 242.0Q142 250 112.0 265.5Q82 281 63.5 308.0Q45 335 45 380Q45 423 69.0 457.0Q93 491 139.5 510.5Q186 530 253 530Q304 530 355.0 516.5Q406 503 439 481L408 424Q373 448 333.0 458.5Q293 469 253 469Q182 469 148.5 444.5Q115 420 115 382Q115 352 133.5 335.0Q152 318 182.5 308.5Q213 299 249.5 293.0Q286 287 322.5 278.5Q359 270 389.5 255.5Q420 241 438.5 214.5Q457 188 457 145Q457 99 431.5 65.5Q406 32 357.5 13.5Q309 -5 240 -5Z" fill="#5a5a63"/><path transform="translate(399.088 452.000) scale(0.03600 -0.03600)" d="M99 0V742H170V0Z" fill="#5a5a63"/><path transform="translate(408.772 452.000) scale(0.03600 -0.03600)" d="M313 -5Q237 -5 176.5 29.5Q116 64 81.0 124.5Q46 185 46 263Q46 342 81.0 402.0Q116 462 176.0 496.0Q236 530 313 530Q391 530 451.5 496.0Q512 462 546.5 402.0Q581 342 581 263Q581 185 546.5 124.5Q512 64 451.0 29.5Q390 -5 313 -5ZM313 58Q370 58 414.0 83.5Q458 109 483.5 155.5Q509 202 509 263Q509 325 483.5 371.0Q458 417 414.0 442.5Q370 468 314 468Q258 468 214.0 442.5Q170 417 144.0 371.0Q118 325 118 263Q118 202 144.0 155.5Q170 109 214.0 83.5Q258 58 313 58Z" fill="#5a5a63"/><path transform="translate(431.344 452.000) scale(0.03600 -0.03600)" d="M323 -199Q251 -199 185.0 -178.0Q119 -157 78 -118L114 -64Q151 -97 205.5 -116.5Q260 -136 321 -136Q421 -136 468.0 -89.5Q515 -43 515 55V121Q484 76 436 50Q380 20 310 20Q235 20 175.0 52.5Q115 85 80.5 143.0Q46 201 46.0 276.0Q46 351 80.5 408.5Q115 466 175.0 498.0Q235 530 310 530Q380 530 436 501Q486 475 518 426V525H586V64Q586 -72 519.5 -135.5Q453 -199 323 -199ZM317 83Q375 83 420.0 107.5Q465 132 491.0 175.5Q517 219 517.0 276.0Q517 333 491.0 376.0Q465 419 420.0 443.5Q375 468 317 468Q260 468 214.5 443.5Q169 419 143.5 376.0Q118 333 118.0 276.0Q118 219 143.5 175.5Q169 132 214.5 107.5Q260 83 317 83Z" fill="#5a5a63"/><path transform="translate(465.436 452.000) scale(0.03600 -0.03600)" d="M111 0V466H17V525H111V591Q111 661 152.0 704.0Q193 747 270 747Q300 747 328.0 739.0Q356 731 375 714L351 661Q336 674 316.0 680.5Q296 687 273 687Q228 687 204.0 662.0Q180 637 180 588V525H342V466H182V0Z" fill="#5a5a63"/><path transform="translate(477.640 452.000) scale(0.03600 -0.03600)" d="M313 -5Q237 -5 176.5 29.5Q116 64 81.0 124.5Q46 185 46 263Q46 342 81.0 402.0Q116 462 176.0 496.0Q236 530 313 530Q391 530 451.5 496.0Q512 462 546.5 402.0Q581 342 581 263Q581 185 546.5 124.5Q512 64 451.0 29.5Q390 -5 313 -5ZM313 58Q370 58 414.0 83.5Q458 109 483.5 155.5Q509 202 509 263Q509 325 483.5 371.0Q458 417 414.0 442.5Q370 468 314 468Q258 468 214.0 442.5Q170 417 144.0 371.0Q118 325 118 263Q118 202 144.0 155.5Q170 109 214.0 83.5Q258 58 313 58Z" fill="#5a5a63"/><path transform="translate(500.212 452.000) scale(0.03600 -0.03600)" d="M99 0V525H167V424Q190 472 234 499Q286 530 363 530V461Q359 461 355.0 461.5Q351 462 347 462Q264 462 217.0 411.5Q170 361 170 268V0Z" fill="#5a5a63"/><path transform="translate(524.080 452.000) scale(0.03600 -0.03600)" d="M322 -5Q240 -5 178.0 29.5Q116 64 81.0 124.5Q46 185 46.0 263.0Q46 341 79.5 401.0Q113 461 171.5 495.5Q230 530 303 530Q377 530 434.5 496.5Q492 463 525.0 402.5Q558 342 558 263Q558 258 557.5 252.5Q557 247 557 241H116Q119 193 142 155Q168 109 215.5 83.5Q263 58 324 58Q372 58 413.5 75.0Q455 92 485 127L525 81Q490 39 437.5 17.0Q385 -5 322 -5ZM116 294H490Q486 338 467 375Q442 419 400.0 444.0Q358 469 303 469Q249 469 206.0 444.0Q163 419 139 374Q120 338 116 294Z" fill="#5a5a63"/><path transform="translate(545.824 452.000) scale(0.03600 -0.03600)" d="M99 0V525H167V430Q191 472 234 498Q287 530 360 530Q437 530 491 492Q529 465 548 419Q572 462 615 491Q673 530 755 530Q819 530 866.5 505.5Q914 481 940.5 431.0Q967 381 967 305V0H896V298Q896 381 856.5 423.5Q817 466 745 466Q691 466 651.5 443.5Q612 421 590.5 378.5Q569 336 569 276V0H498V298Q498 381 458.0 423.5Q418 466 346 466Q293 466 253.0 443.5Q213 421 191.5 378.5Q170 336 170 276V0Z" fill="#5a5a63"/><path transform="translate(584.020 452.000) scale(0.03600 -0.03600)" d="M370 -5Q301 -5 246 27Q198 54 167 104V0H99V742H170V426Q200 473 247 499Q302 530 370 530Q445 530 504.5 496.5Q564 463 598.0 403.0Q632 343 632 263Q632 184 598.0 123.5Q564 63 504.5 29.0Q445 -5 370 -5ZM365 58Q421 58 465.0 83.5Q509 109 535.0 155.5Q561 202 561 263Q561 325 535.0 371.0Q509 417 465.0 442.5Q421 468 365.0 468.0Q309 468 264.5 442.5Q220 417 194.5 371.0Q169 325 169 263Q169 202 194.5 155.5Q220 109 264.5 83.5Q309 58 365 58Z" fill="#5a5a63"/><path transform="translate(608.428 452.000) scale(0.03600 -0.03600)" d="M322 -5Q240 -5 178.0 29.5Q116 64 81.0 124.5Q46 185 46.0 263.0Q46 341 79.5 401.0Q113 461 171.5 495.5Q230 530 303 530Q377 530 434.5 496.5Q492 463 525.0 402.5Q558 342 558 263Q558 258 557.5 252.5Q557 247 557 241H116Q119 193 142 155Q168 109 215.5 83.5Q263 58 324 58Q372 58 413.5 75.0Q455 92 485 127L525 81Q490 39 437.5 17.0Q385 -5 322 -5ZM116 294H490Q486 338 467 375Q442 419 400.0 444.0Q358 469 303 469Q249 469 206.0 444.0Q163 419 139 374Q120 338 116 294Z" fill="#5a5a63"/><path transform="translate(630.172 452.000) scale(0.03600 -0.03600)" d="M308 -5Q233 -5 173.5 29.0Q114 63 80.0 123.5Q46 184 46 263Q46 343 80.0 403.0Q114 463 173.5 496.5Q233 530 308 530Q377 530 432 499Q478 473 508 426V742H579V0H511V104Q480 54 433 27Q378 -5 308 -5ZM313 58Q369 58 413.5 83.5Q458 109 483.5 155.5Q509 202 509 263Q509 325 483.5 371.0Q458 417 413.5 442.5Q369 468 313 468Q258 468 214.0 442.5Q170 417 144.0 371.0Q118 325 118 263Q118 202 144.0 155.5Q170 109 214.0 83.5Q258 58 313 58Z" fill="#5a5a63"/><path transform="translate(654.580 452.000) scale(0.03600 -0.03600)" d="M308 -5Q233 -5 173.5 29.0Q114 63 80.0 123.5Q46 184 46 263Q46 343 80.0 403.0Q114 463 173.5 496.5Q233 530 308 530Q377 530 432 499Q478 473 508 426V742H579V0H511V104Q480 54 433 27Q378 -5 308 -5ZM313 58Q369 58 413.5 83.5Q458 109 483.5 155.5Q509 202 509 263Q509 325 483.5 371.0Q458 417 413.5 442.5Q369 468 313 468Q258 468 214.0 442.5Q170 417 144.0 371.0Q118 325 118 263Q118 202 144.0 155.5Q170 109 214.0 83.5Q258 58 313 58Z" fill="#5a5a63"/><path transform="translate(678.988 452.000) scale(0.03600 -0.03600)" d="M322 -5Q240 -5 178.0 29.5Q116 64 81.0 124.5Q46 185 46.0 263.0Q46 341 79.5 401.0Q113 461 171.5 495.5Q230 530 303 530Q377 530 434.5 496.5Q492 463 525.0 402.5Q558 342 558 263Q558 258 557.5 252.5Q557 247 557 241H116Q119 193 142 155Q168 109 215.5 83.5Q263 58 324 58Q372 58 413.5 75.0Q455 92 485 127L525 81Q490 39 437.5 17.0Q385 -5 322 -5ZM116 294H490Q486 338 467 375Q442 419 400.0 444.0Q358 469 303 469Q249 469 206.0 444.0Q163 419 139 374Q120 338 116 294Z" fill="#5a5a63"/><path transform="translate(700.732 452.000) scale(0.03600 -0.03600)" d="M308 -5Q233 -5 173.5 29.0Q114 63 80.0 123.5Q46 184 46 263Q46 343 80.0 403.0Q114 463 173.5 496.5Q233 530 308 530Q377 530 432 499Q478 473 508 426V742H579V0H511V104Q480 54 433 27Q378 -5 308 -5ZM313 58Q369 58 413.5 83.5Q458 109 483.5 155.5Q509 202 509 263Q509 325 483.5 371.0Q458 417 413.5 442.5Q369 468 313 468Q258 468 214.0 442.5Q170 417 144.0 371.0Q118 325 118 263Q118 202 144.0 155.5Q170 109 214.0 83.5Q258 58 313 58Z" fill="#5a5a63"/><path transform="translate(734.572 452.000) scale(0.03600 -0.03600)" d="M428 0V82Q408 49 372 26Q322 -5 247 -5Q188 -5 144.5 14.5Q101 34 78.0 68.5Q55 103 55 148Q55 189 74.5 222.5Q94 256 138.5 276.5Q183 297 258 297H425V329Q425 396 387.5 432.0Q350 468 276 468Q225 468 179.0 451.0Q133 434 101 406L69 459Q109 493 165.0 511.5Q221 530 283 530Q385 530 440.5 479.5Q496 429 496 326V0ZM425 244H260Q184 244 154.5 217.0Q125 190 125 150Q125 105 160.0 78.0Q195 51 258 51Q318 51 361.5 78.5Q405 106 425 158Z" fill="#5a5a63"/><path transform="translate(755.812 452.000) scale(0.03600 -0.03600)" d="M99 0V525H167V429Q192 471 236 498Q291 530 367 530Q431 530 479.5 505.5Q528 481 555.5 431.0Q583 381 583 305V0H512V298Q512 381 470.5 423.5Q429 466 354 466Q298 466 256.5 443.5Q215 421 192.5 378.5Q170 336 170 276V0Z" fill="#5a5a63"/><path transform="translate(780.148 452.000) scale(0.03600 -0.03600)" d="M308 -5Q233 -5 173.5 29.0Q114 63 80.0 123.5Q46 184 46 263Q46 343 80.0 403.0Q114 463 173.5 496.5Q233 530 308 530Q377 530 432 499Q478 473 508 426V742H579V0H511V104Q480 54 433 27Q378 -5 308 -5ZM313 58Q369 58 413.5 83.5Q458 109 483.5 155.5Q509 202 509 263Q509 325 483.5 371.0Q458 417 413.5 442.5Q369 468 313 468Q258 468 214.0 442.5Q170 417 144.0 371.0Q118 325 118 263Q118 202 144.0 155.5Q170 109 214.0 83.5Q258 58 313 58Z" fill="#5a5a63"/><path transform="translate(813.988 452.000) scale(0.03600 -0.03600)" d="M99 0V525H170V0ZM135 641Q113 641 98.0 656.0Q83 671 83 692Q83 713 98.0 727.5Q113 742 135 742Q157 742 172.0 728.0Q187 714 187 693Q187 671 172.5 656.0Q158 641 135 641Z" fill="#5a5a63"/><path transform="translate(823.672 452.000) scale(0.03600 -0.03600)" d="M99 0V525H167V429Q192 471 236 498Q291 530 367 530Q431 530 479.5 505.5Q528 481 555.5 431.0Q583 381 583 305V0H512V298Q512 381 470.5 423.5Q429 466 354 466Q298 466 256.5 443.5Q215 421 192.5 378.5Q170 336 170 276V0Z" fill="#5a5a63"/><path transform="translate(848.008 452.000) scale(0.03600 -0.03600)" d="M308 -5Q233 -5 173.5 29.0Q114 63 80.0 123.5Q46 184 46 263Q46 343 80.0 403.0Q114 463 173.5 496.5Q233 530 308 530Q377 530 432 499Q478 473 508 426V742H579V0H511V104Q480 54 433 27Q378 -5 308 -5ZM313 58Q369 58 413.5 83.5Q458 109 483.5 155.5Q509 202 509 263Q509 325 483.5 371.0Q458 417 413.5 442.5Q369 468 313 468Q258 468 214.0 442.5Q170 417 144.0 371.0Q118 325 118 263Q118 202 144.0 155.5Q170 109 214.0 83.5Q258 58 313 58Z" fill="#5a5a63"/><path transform="translate(872.416 452.000) scale(0.03600 -0.03600)" d="M316 -5Q249 -5 199.0 20.0Q149 45 121.5 95.0Q94 145 94 220V525H165V228Q165 144 206.5 101.5Q248 59 323 59Q378 59 418.5 81.5Q459 104 480.5 147.0Q502 190 502 250V525H573V0H505V96Q481 54 439 28Q386 -5 316 -5Z" fill="#5a5a63"/><path transform="translate(896.608 452.000) scale(0.03600 -0.03600)" d="M240 -5Q175 -5 117.0 13.5Q59 32 26 60L58 116Q90 92 140.0 74.5Q190 57 245 57Q320 57 353.0 80.5Q386 104 386 143Q386 172 367.5 188.5Q349 205 319.0 213.5Q289 222 252.0 228.0Q215 234 178.5 242.0Q142 250 112.0 265.5Q82 281 63.5 308.0Q45 335 45 380Q45 423 69.0 457.0Q93 491 139.5 510.5Q186 530 253 530Q304 530 355.0 516.5Q406 503 439 481L408 424Q373 448 333.0 458.5Q293 469 253 469Q182 469 148.5 444.5Q115 420 115 382Q115 352 133.5 335.0Q152 318 182.5 308.5Q213 299 249.5 293.0Q286 287 322.5 278.5Q359 270 389.5 255.5Q420 241 438.5 214.5Q457 188 457 145Q457 99 431.5 65.5Q406 32 357.5 13.5Q309 -5 240 -5Z" fill="#5a5a63"/><path transform="translate(914.176 452.000) scale(0.03600 -0.03600)" d="M265 -5Q191 -5 151.0 35.0Q111 75 111 148V466H17V525H111V641H182V525H342V466H182V152Q182 106 205.5 81.0Q229 56 273 56Q320 56 351 83L376 32Q355 13 325.5 4.0Q296 -5 265 -5Z" fill="#5a5a63"/><path transform="translate(928.792 452.000) scale(0.03600 -0.03600)" d="M99 0V525H167V424Q190 472 234 499Q286 530 363 530V461Q359 461 355.0 461.5Q351 462 347 462Q264 462 217.0 411.5Q170 361 170 268V0Z" fill="#5a5a63"/><path transform="translate(943.228 452.000) scale(0.03600 -0.03600)" d="M99 0V525H170V0ZM135 641Q113 641 98.0 656.0Q83 671 83 692Q83 713 98.0 727.5Q113 742 135 742Q157 742 172.0 728.0Q187 714 187 693Q187 671 172.5 656.0Q158 641 135 641Z" fill="#5a5a63"/><path transform="translate(952.912 452.000) scale(0.03600 -0.03600)" d="M428 0V82Q408 49 372 26Q322 -5 247 -5Q188 -5 144.5 14.5Q101 34 78.0 68.5Q55 103 55 148Q55 189 74.5 222.5Q94 256 138.5 276.5Q183 297 258 297H425V329Q425 396 387.5 432.0Q350 468 276 468Q225 468 179.0 451.0Q133 434 101 406L69 459Q109 493 165.0 511.5Q221 530 283 530Q385 530 440.5 479.5Q496 429 496 326V0ZM425 244H260Q184 244 154.5 217.0Q125 190 125 150Q125 105 160.0 78.0Q195 51 258 51Q318 51 361.5 78.5Q405 106 425 158Z" fill="#5a5a63"/><path transform="translate(974.152 452.000) scale(0.03600 -0.03600)" d="M99 0V742H170V0Z" fill="#5a5a63"/><path transform="translate(993.268 452.000) scale(0.03600 -0.03600)" d="M240 -5Q175 -5 117.0 13.5Q59 32 26 60L58 116Q90 92 140.0 74.5Q190 57 245 57Q320 57 353.0 80.5Q386 104 386 143Q386 172 367.5 188.5Q349 205 319.0 213.5Q289 222 252.0 228.0Q215 234 178.5 242.0Q142 250 112.0 265.5Q82 281 63.5 308.0Q45 335 45 380Q45 423 69.0 457.0Q93 491 139.5 510.5Q186 530 253 530Q304 530 355.0 516.5Q406 503 439 481L408 424Q373 448 333.0 458.5Q293 469 253 469Q182 469 148.5 444.5Q115 420 115 382Q115 352 133.5 335.0Q152 318 182.5 308.5Q213 299 249.5 293.0Q286 287 322.5 278.5Q359 270 389.5 255.5Q420 241 438.5 214.5Q457 188 457 145Q457 99 431.5 65.5Q406 32 357.5 13.5Q309 -5 240 -5Z" fill="#5a5a63"/><path transform="translate(1010.836 452.000) scale(0.03600 -0.03600)" d="M103 -199Q66 -199 32.5 -187.0Q-1 -175 -25 -151L8 -98Q28 -117 51.5 -127.5Q75 -138 104 -138Q139 -138 164.5 -118.5Q190 -99 213 -50L236 1L1 525H75L273 79L471 525H541L278 -63Q256 -114 229.5 -144.0Q203 -174 172.0 -186.5Q141 -199 103 -199Z" fill="#5a5a63"/><path transform="translate(1030.348 452.000) scale(0.03600 -0.03600)" d="M240 -5Q175 -5 117.0 13.5Q59 32 26 60L58 116Q90 92 140.0 74.5Q190 57 245 57Q320 57 353.0 80.5Q386 104 386 143Q386 172 367.5 188.5Q349 205 319.0 213.5Q289 222 252.0 228.0Q215 234 178.5 242.0Q142 250 112.0 265.5Q82 281 63.5 308.0Q45 335 45 380Q45 423 69.0 457.0Q93 491 139.5 510.5Q186 530 253 530Q304 530 355.0 516.5Q406 503 439 481L408 424Q373 448 333.0 458.5Q293 469 253 469Q182 469 148.5 444.5Q115 420 115 382Q115 352 133.5 335.0Q152 318 182.5 308.5Q213 299 249.5 293.0Q286 287 322.5 278.5Q359 270 389.5 255.5Q420 241 438.5 214.5Q457 188 457 145Q457 99 431.5 65.5Q406 32 357.5 13.5Q309 -5 240 -5Z" fill="#5a5a63"/><path transform="translate(1047.916 452.000) scale(0.03600 -0.03600)" d="M265 -5Q191 -5 151.0 35.0Q111 75 111 148V466H17V525H111V641H182V525H342V466H182V152Q182 106 205.5 81.0Q229 56 273 56Q320 56 351 83L376 32Q355 13 325.5 4.0Q296 -5 265 -5Z" fill="#5a5a63"/><path transform="translate(1062.532 452.000) scale(0.03600 -0.03600)" d="M322 -5Q240 -5 178.0 29.5Q116 64 81.0 124.5Q46 185 46.0 263.0Q46 341 79.5 401.0Q113 461 171.5 495.5Q230 530 303 530Q377 530 434.5 496.5Q492 463 525.0 402.5Q558 342 558 263Q558 258 557.5 252.5Q557 247 557 241H116Q119 193 142 155Q168 109 215.5 83.5Q263 58 324 58Q372 58 413.5 75.0Q455 92 485 127L525 81Q490 39 437.5 17.0Q385 -5 322 -5ZM116 294H490Q486 338 467 375Q442 419 400.0 444.0Q358 469 303 469Q249 469 206.0 444.0Q163 419 139 374Q120 338 116 294Z" fill="#5a5a63"/><path transform="translate(1084.276 452.000) scale(0.03600 -0.03600)" d="M99 0V525H167V430Q191 472 234 498Q287 530 360 530Q437 530 491 492Q529 465 548 419Q572 462 615 491Q673 530 755 530Q819 530 866.5 505.5Q914 481 940.5 431.0Q967 381 967 305V0H896V298Q896 381 856.5 423.5Q817 466 745 466Q691 466 651.5 443.5Q612 421 590.5 378.5Q569 336 569 276V0H498V298Q498 381 458.0 423.5Q418 466 346 466Q293 466 253.0 443.5Q213 421 191.5 378.5Q170 336 170 276V0Z" fill="#5a5a63"/><path transform="translate(1122.472 452.000) scale(0.03600 -0.03600)" d="M240 -5Q175 -5 117.0 13.5Q59 32 26 60L58 116Q90 92 140.0 74.5Q190 57 245 57Q320 57 353.0 80.5Q386 104 386 143Q386 172 367.5 188.5Q349 205 319.0 213.5Q289 222 252.0 228.0Q215 234 178.5 242.0Q142 250 112.0 265.5Q82 281 63.5 308.0Q45 335 45 380Q45 423 69.0 457.0Q93 491 139.5 510.5Q186 530 253 530Q304 530 355.0 516.5Q406 503 439 481L408 424Q373 448 333.0 458.5Q293 469 253 469Q182 469 148.5 444.5Q115 420 115 382Q115 352 133.5 335.0Q152 318 182.5 308.5Q213 299 249.5 293.0Q286 287 322.5 278.5Q359 270 389.5 255.5Q420 241 438.5 214.5Q457 188 457 145Q457 99 431.5 65.5Q406 32 357.5 13.5Q309 -5 240 -5Z" fill="#5a5a63"/><path transform="translate(541.240 518.000) scale(0.02400 -0.02400)" d="M332 -8Q245 -8 177.0 27.5Q109 63 70.5 126.0Q32 189 32 269Q32 350 70.5 412.5Q109 475 177.0 510.5Q245 546 332 546Q417 546 480.0 510.5Q543 475 573 409L452 344Q431 382 399.5 400.0Q368 418 331 418Q291 418 259.0 400.0Q227 382 208.5 349.0Q190 316 190 269Q190 222 208.5 189.0Q227 156 259.0 138.0Q291 120 331 120Q368 120 399.5 137.5Q431 155 452 194L573 128Q543 63 480.0 27.5Q417 -8 332 -8Z" fill="#3e2199"/><path transform="translate(558.424 518.000) scale(0.02400 -0.02400)" d="M328 -8Q242 -8 175.5 28.0Q109 64 70.5 126.5Q32 189 32 269Q32 350 70.5 412.5Q109 475 175.5 510.5Q242 546 328 546Q413 546 480.0 510.5Q547 475 585.0 413.0Q623 351 623 269Q623 189 585.0 126.5Q547 64 480.0 28.0Q413 -8 328 -8ZM328 120Q367 120 398.0 138.0Q429 156 447.0 189.5Q465 223 465 269Q465 316 447.0 349.0Q429 382 398.0 400.0Q367 418 328 418Q289 418 258.0 400.0Q227 382 208.5 349.0Q190 316 190 269Q190 223 208.5 189.5Q227 156 258.0 138.0Q289 120 328 120Z" fill="#3e2199"/><path transform="translate(577.144 518.000) scale(0.02400 -0.02400)" d="M253 -8Q184 -8 120.5 8.5Q57 25 20 50L72 162Q109 139 159.5 124.5Q210 110 259 110Q313 110 335.5 123.0Q358 136 358 159Q358 178 340.5 187.5Q323 197 294.0 202.0Q265 207 230.5 212.0Q196 217 161.0 225.5Q126 234 97.0 251.0Q68 268 50.5 297.0Q33 326 33 372Q33 423 62.5 462.0Q92 501 148.0 523.5Q204 546 282 546Q337 546 394.0 534.0Q451 522 489 499L437 388Q398 411 358.5 419.5Q319 428 282 428Q230 428 206.0 414.0Q182 400 182 378Q182 358 199.5 348.0Q217 338 246.0 332.0Q275 326 309.5 321.5Q344 317 379.0 308.0Q414 299 442.5 282.5Q471 266 489.0 237.5Q507 209 507 163Q507 113 477.0 74.5Q447 36 390.5 14.0Q334 -8 253 -8Z" fill="#3e2199"/><path transform="translate(592.888 518.000) scale(0.02400 -0.02400)" d="M328 -8Q242 -8 175.5 28.0Q109 64 70.5 126.5Q32 189 32 269Q32 350 70.5 412.5Q109 475 175.5 510.5Q242 546 328 546Q413 546 480.0 510.5Q547 475 585.0 413.0Q623 351 623 269Q623 189 585.0 126.5Q547 64 480.0 28.0Q413 -8 328 -8ZM328 120Q367 120 398.0 138.0Q429 156 447.0 189.5Q465 223 465 269Q465 316 447.0 349.0Q429 382 398.0 400.0Q367 418 328 418Q289 418 258.0 400.0Q227 382 208.5 349.0Q190 316 190 269Q190 223 208.5 189.5Q227 156 258.0 138.0Q289 120 328 120Z" fill="#3e2199"/><path transform="translate(611.608 518.000) scale(0.02400 -0.02400)" d="M253 -8Q184 -8 120.5 8.5Q57 25 20 50L72 162Q109 139 159.5 124.5Q210 110 259 110Q313 110 335.5 123.0Q358 136 358 159Q358 178 340.5 187.5Q323 197 294.0 202.0Q265 207 230.5 212.0Q196 217 161.0 225.5Q126 234 97.0 251.0Q68 268 50.5 297.0Q33 326 33 372Q33 423 62.5 462.0Q92 501 148.0 523.5Q204 546 282 546Q337 546 394.0 534.0Q451 522 489 499L437 388Q398 411 358.5 419.5Q319 428 282 428Q230 428 206.0 414.0Q182 400 182 378Q182 358 199.5 348.0Q217 338 246.0 332.0Q275 326 309.5 321.5Q344 317 379.0 308.0Q414 299 442.5 282.5Q471 266 489.0 237.5Q507 209 507 163Q507 113 477.0 74.5Q447 36 390.5 14.0Q334 -8 253 -8Z" fill="#3e2199"/><path transform="translate(627.352 518.000) scale(0.02400 -0.02400)" d="M328 -8Q242 -8 175.5 28.0Q109 64 70.5 126.5Q32 189 32 269Q32 350 70.5 412.5Q109 475 175.5 510.5Q242 546 328 546Q413 546 480.0 510.5Q547 475 585.0 413.0Q623 351 623 269Q623 189 585.0 126.5Q547 64 480.0 28.0Q413 -8 328 -8ZM328 120Q367 120 398.0 138.0Q429 156 447.0 189.5Q465 223 465 269Q465 316 447.0 349.0Q429 382 398.0 400.0Q367 418 328 418Q289 418 258.0 400.0Q227 382 208.5 349.0Q190 316 190 269Q190 223 208.5 189.5Q227 156 258.0 138.0Q289 120 328 120Z" fill="#3e2199"/><path transform="translate(646.072 518.000) scale(0.02400 -0.02400)" d="M131 -8Q91 -8 62.5 19.5Q34 47 34 90Q34 133 62.5 159.5Q91 186 131 186Q172 186 200.0 159.5Q228 133 228 90Q228 47 200.0 19.5Q172 -8 131 -8Z" fill="#3e2199"/><path transform="translate(655.360 518.000) scale(0.02400 -0.02400)" d="M332 -8Q245 -8 177.0 27.5Q109 63 70.5 126.0Q32 189 32 269Q32 350 70.5 412.5Q109 475 177.0 510.5Q245 546 332 546Q417 546 480.0 510.5Q543 475 573 409L452 344Q431 382 399.5 400.0Q368 418 331 418Q291 418 259.0 400.0Q227 382 208.5 349.0Q190 316 190 269Q190 222 208.5 189.0Q227 156 259.0 138.0Q291 120 331 120Q368 120 399.5 137.5Q431 155 452 194L573 128Q543 63 480.0 27.5Q417 -8 332 -8Z" fill="#3e2199"/><path transform="translate(672.544 518.000) scale(0.02400 -0.02400)" d="M328 -8Q242 -8 175.5 28.0Q109 64 70.5 126.5Q32 189 32 269Q32 350 70.5 412.5Q109 475 175.5 510.5Q242 546 328 546Q413 546 480.0 510.5Q547 475 585.0 413.0Q623 351 623 269Q623 189 585.0 126.5Q547 64 480.0 28.0Q413 -8 328 -8ZM328 120Q367 120 398.0 138.0Q429 156 447.0 189.5Q465 223 465 269Q465 316 447.0 349.0Q429 382 398.0 400.0Q367 418 328 418Q289 418 258.0 400.0Q227 382 208.5 349.0Q190 316 190 269Q190 223 208.5 189.5Q227 156 258.0 138.0Q289 120 328 120Z" fill="#3e2199"/><path transform="translate(691.264 518.000) scale(0.02400 -0.02400)" d="M131 -8Q91 -8 62.5 19.5Q34 47 34 90Q34 133 62.5 159.5Q91 186 131 186Q172 186 200.0 159.5Q228 133 228 90Q228 47 200.0 19.5Q172 -8 131 -8Z" fill="#3e2199"/><path transform="translate(700.552 518.000) scale(0.02400 -0.02400)" d="M299 -8Q232 -8 179.5 18.0Q127 44 98.0 97.5Q69 151 69 234V538H225V257Q225 190 253.5 158.5Q282 127 334 127Q370 127 398.0 142.5Q426 158 442.0 190.5Q458 223 458 272V538H614V0H466V63Q444 37 414 21Q361 -8 299 -8Z" fill="#3e2199"/><path transform="translate(720.040 518.000) scale(0.02400 -0.02400)" d="M72 0V742H228V322L456 538H642L418 310L662 0H473L303 211L228 137V0Z" fill="#3e2199"/><rect x="0" y="628" width="426.666667" height="12" fill="#ff9900"/><rect x="426.666667" y="628" width="426.666667" height="12" fill="#741b47"/><rect x="853.333333" y="628" width="426.666667" height="12" fill="#073763"/></svg>