<svg xmlns="http://www.w3.org/2000/svg" viewBox="0 0 430 112" width="430" height="112" role="img" aria-label="SolidSyslog"><defs><filter id="cs" x="-25%" y="-25%" width="150%" height="150%"><feGaussianBlur in="SourceAlpha" stdDeviation="2.4"/><feOffset dx="0" dy="2.4"/><feComponentTransfer><feFuncA type="linear" slope="0.28"/></feComponentTransfer><feMerge><feMergeNode/><feMergeNode in="SourceGraphic"/></feMerge></filter></defs><g filter="url(#cs)"><polygon points="17.00,81.67 17.00,28.45 52.59,40.14 52.59,93.36" fill="#741b47" stroke="#ffffff" stroke-width="1" stroke-linejoin="round"/><polygon points="95.00,83.55 52.59,93.36 52.59,40.14 95.00,30.33" fill="#073763" stroke="#ffffff" stroke-width="1" stroke-linejoin="round"/><polygon points="59.41,18.64 95.00,30.33 52.59,40.14 17.00,28.45" fill="#ff9900" stroke="#ffffff" stroke-width="1" stroke-linejoin="round"/></g><path transform="translate(134.000 72.000) scale(0.04400 -0.04400)" d="M253 -8Q184 -8 120.5 8.5Q57 25 20 50L72 162Q109 139 159.5 124.5Q210 110 259 110Q313 110 335.5 123.0Q358 136 358 159Q358 178 340.5 187.5Q323 197 294.0 202.0Q265 207 230.5 212.0Q196 217 161.0 225.5Q126 234 97.0 251.0Q68 268 50.5 297.0Q33 326 33 372Q33 423 62.5 462.0Q92 501 148.0 523.5Q204 546 282 546Q337 546 394.0 534.0Q451 522 489 499L437 388Q398 411 358.5 419.5Q319 428 282 428Q230 428 206.0 414.0Q182 400 182 378Q182 358 199.5 348.0Q217 338 246.0 332.0Q275 326 309.5 321.5Q344 317 379.0 308.0Q414 299 442.5 282.5Q471 266 489.0 237.5Q507 209 507 163Q507 113 477.0 74.5Q447 36 390.5 14.0Q334 -8 253 -8Z" fill="#073763"/><path transform="translate(156.364 72.000) scale(0.04400 -0.04400)" d="M328 -8Q242 -8 175.5 28.0Q109 64 70.5 126.5Q32 189 32 269Q32 350 70.5 412.5Q109 475 175.5 510.5Q242 546 328 546Q413 546 480.0 510.5Q547 475 585.0 413.0Q623 351 623 269Q623 189 585.0 126.5Q547 64 480.0 28.0Q413 -8 328 -8ZM328 120Q367 120 398.0 138.0Q429 156 447.0 189.5Q465 223 465 269Q465 316 447.0 349.0Q429 382 398.0 400.0Q367 418 328 418Q289 418 258.0 400.0Q227 382 208.5 349.0Q190 316 190 269Q190 223 208.5 189.5Q227 156 258.0 138.0Q289 120 328 120Z" fill="#073763"/><path transform="translate(184.184 72.000) scale(0.04400 -0.04400)" d="M72 0V742H228V0Z" fill="#073763"/><path transform="translate(196.428 72.000) scale(0.04400 -0.04400)" d="M72 0V538H228V0ZM150 613Q107 613 80.0 638.0Q53 663 53 700Q53 737 80.0 762.0Q107 787 150 787Q193 787 220.0 763.5Q247 740 247 703Q247 664 220.5 638.5Q194 613 150 613Z" fill="#073763"/><path transform="translate(208.672 72.000) scale(0.04400 -0.04400)" d="M303 -8Q227 -8 166.0 26.5Q105 61 69.5 123.0Q34 185 34 269Q34 354 69.5 416.0Q105 478 166.0 512.0Q227 546 303 546Q371 546 422 516Q445 502 464 482V742H620V0H471V62Q451 38 425 22Q374 -8 303 -8ZM330 120Q368 120 399.0 138.0Q430 156 448.5 189.5Q467 223 467 269Q467 316 448.5 349.0Q430 382 399.0 400.0Q368 418 330 418Q291 418 260.0 400.0Q229 382 210.5 349.0Q192 316 192 269Q192 223 210.5 189.5Q229 156 260.0 138.0Q291 120 330 120Z" fill="#073763"/><path transform="translate(238.120 72.000) scale(0.04400 -0.04400)" d="M253 -8Q184 -8 120.5 8.5Q57 25 20 50L72 162Q109 139 159.5 124.5Q210 110 259 110Q313 110 335.5 123.0Q358 136 358 159Q358 178 340.5 187.5Q323 197 294.0 202.0Q265 207 230.5 212.0Q196 217 161.0 225.5Q126 234 97.0 251.0Q68 268 50.5 297.0Q33 326 33 372Q33 423 62.5 462.0Q92 501 148.0 523.5Q204 546 282 546Q337 546 394.0 534.0Q451 522 489 499L437 388Q398 411 358.5 419.5Q319 428 282 428Q230 428 206.0 414.0Q182 400 182 378Q182 358 199.5 348.0Q217 338 246.0 332.0Q275 326 309.5 321.5Q344 317 379.0 308.0Q414 299 442.5 282.5Q471 266 489.0 237.5Q507 209 507 163Q507 113 477.0 74.5Q447 36 390.5 14.0Q334 -8 253 -8Z" fill="#2b2b33"/><path transform="translate(260.484 72.000) scale(0.04400 -0.04400)" d="M140 -202Q98 -202 57.0 -189.0Q16 -176 -10 -153L47 -42Q65 -58 88.5 -67.0Q112 -76 135 -76Q168 -76 187.5 -60.5Q207 -45 223 -9L225 -4L-8 538H153L304 173L456 538H606L363 -33Q337 -98 303.5 -135.0Q270 -172 229.5 -187.0Q189 -202 140 -202Z" fill="#2b2b33"/><path transform="translate(285.796 72.000) scale(0.04400 -0.04400)" d="M253 -8Q184 -8 120.5 8.5Q57 25 20 50L72 162Q109 139 159.5 124.5Q210 110 259 110Q313 110 335.5 123.0Q358 136 358 159Q358 178 340.5 187.5Q323 197 294.0 202.0Q265 207 230.5 212.0Q196 217 161.0 225.5Q126 234 97.0 251.0Q68 268 50.5 297.0Q33 326 33 372Q33 423 62.5 462.0Q92 501 148.0 523.5Q204 546 282 546Q337 546 394.0 534.0Q451 522 489 499L437 388Q398 411 358.5 419.5Q319 428 282 428Q230 428 206.0 414.0Q182 400 182 378Q182 358 199.5 348.0Q217 338 246.0 332.0Q275 326 309.5 321.5Q344 317 379.0 308.0Q414 299 442.5 282.5Q471 266 489.0 237.5Q507 209 507 163Q507 113 477.0 74.5Q447 36 390.5 14.0Q334 -8 253 -8Z" fill="#2b2b33"/><path transform="translate(308.160 72.000) scale(0.04400 -0.04400)" d="M72 0V742H228V0Z" fill="#2b2b33"/><path transform="translate(320.404 72.000) scale(0.04400 -0.04400)" d="M328 -8Q242 -8 175.5 28.0Q109 64 70.5 126.5Q32 189 32 269Q32 350 70.5 412.5Q109 475 175.5 510.5Q242 546 328 546Q413 546 480.0 510.5Q547 475 585.0 413.0Q623 351 623 269Q623 189 585.0 126.5Q547 64 480.0 28.0Q413 -8 328 -8ZM328 120Q367 120 398.0 138.0Q429 156 447.0 189.5Q465 223 465 269Q465 316 447.0 349.0Q429 382 398.0 400.0Q367 418 328 418Q289 418 258.0 400.0Q227 382 208.5 349.0Q190 316 190 269Q190 223 208.5 189.5Q227 156 258.0 138.0Q289 120 328 120Z" fill="#2b2b33"/><path transform="translate(348.224 72.000) scale(0.04400 -0.04400)" d="M325 -202Q249 -202 178.5 -183.5Q108 -165 61 -128L123 -16Q157 -44 209.5 -60.5Q262 -77 313 -77Q396 -77 433.5 -40.0Q471 -3 471 70V93Q449 69 421 54Q369 26 301 26Q226 26 165.5 58.5Q105 91 68.5 149.5Q32 208 32 286Q32 365 68.5 423.5Q105 482 165.5 514.0Q226 546 301 546Q369 546 421 519Q455 501 479 470V538H627V90Q627 -60 549.0 -131.0Q471 -202 325 -202ZM332 154Q373 154 405.0 170.5Q437 187 455.0 217.0Q473 247 473 286Q473 326 455.0 355.5Q437 385 405.0 401.5Q373 418 332.0 418.0Q291 418 259.0 401.5Q227 385 208.5 355.5Q190 326 190 286Q190 247 208.5 217.0Q227 187 259.0 170.5Q291 154 332 154Z" fill="#2b2b33"/></svg>