<svg xmlns="http://www.w3.org/2000/svg" viewBox="0 0 400 112" width="400" height="112" role="img" aria-label="Solid syslog"><defs><filter id="cs" x="-25%" y="-25%" width="150%" height="150%"><feGaussianBlur in="SourceAlpha" stdDeviation="2.4"/><feOffset dx="0" dy="2.4"/><feComponentTransfer><feFuncA type="linear" slope="0.28"/></feComponentTransfer><feMerge><feMergeNode/><feMergeNode in="SourceGraphic"/></feMerge></filter></defs><g filter="url(#cs)"><polygon points="17.00,81.67 17.00,28.45 52.59,40.14 52.59,93.36" fill="#741b47" stroke="#ffffff" stroke-width="1" stroke-linejoin="round"/><polygon points="95.00,83.55 52.59,93.36 52.59,40.14 95.00,30.33" fill="#073763" stroke="#ffffff" stroke-width="1" stroke-linejoin="round"/><polygon points="59.41,18.64 95.00,30.33 52.59,40.14 17.00,28.45" fill="#ff9900" stroke="#ffffff" stroke-width="1" stroke-linejoin="round"/></g><path transform="translate(134.000 42.000) scale(0.02000 -0.02000)" d="M313 -12Q229 -12 152.0 10.5Q75 33 28 69L83 191Q128 159 189.5 138.5Q251 118 314 118Q362 118 391.5 127.5Q421 137 435.0 154.0Q449 171 449 193Q449 221 427.0 237.5Q405 254 369.0 264.5Q333 275 289.5 284.5Q246 294 202.5 308.0Q159 322 123.0 344.0Q87 366 64.5 402.0Q42 438 42 494Q42 554 74.5 603.5Q107 653 172.5 682.5Q238 712 337 712Q403 712 467.0 696.5Q531 681 580 650L530 527Q481 555 432.0 568.5Q383 582 336 582Q289 582 259.0 571.0Q229 560 216.0 542.5Q203 525 203 502Q203 475 225.0 458.5Q247 442 283.0 432.0Q319 422 362.5 412.0Q406 402 449.5 389.0Q493 376 529.0 354.0Q565 332 587.5 296.0Q610 260 610 205Q610 146 577.0 97.0Q544 48 478.5 18.0Q413 -12 313 -12Z" fill="#073763"/><path transform="translate(150.760 42.000) scale(0.02000 -0.02000)" d="M423 -12Q340 -12 269.5 15.0Q199 42 147.5 91.0Q96 140 67.5 206.0Q39 272 39 350Q39 428 67.5 494.0Q96 560 148.0 609.0Q200 658 270.0 685.0Q340 712 422 712Q505 712 574.5 685.0Q644 658 695.5 609.0Q747 560 776.0 494.5Q805 429 805 350Q805 272 776.0 205.5Q747 139 695.5 90.5Q644 42 574.5 15.0Q505 -12 423 -12ZM422 126Q469 126 508.5 142.0Q548 158 578.0 188.0Q608 218 624.5 259.0Q641 300 641 350Q641 400 624.5 441.0Q608 482 578.5 512.0Q549 542 509.0 558.0Q469 574 422 574Q375 574 335.5 558.0Q296 542 266.0 512.0Q236 482 219.5 441.0Q203 400 203 350Q203 301 219.5 259.5Q236 218 265.5 188.0Q295 158 335.0 142.0Q375 126 422 126Z" fill="#073763"/><path transform="translate(171.640 42.000) scale(0.02000 -0.02000)" d="M83 0V700H245V132H596V0Z" fill="#073763"/><path transform="translate(187.720 42.000) scale(0.02000 -0.02000)" d="M83 0V700H245V0Z" fill="#073763"/><path transform="translate(198.280 42.000) scale(0.02000 -0.02000)" d="M83 0V700H401Q515 700 602.0 656.5Q689 613 738.0 535.0Q787 457 787 350Q787 244 738.0 165.5Q689 87 602.0 43.5Q515 0 401 0ZM245 133H393Q463 133 514.5 159.5Q566 186 594.5 235.0Q623 284 623 350Q623 417 594.5 465.5Q566 514 514.5 540.5Q463 567 393 567H245Z" fill="#073763"/><path transform="translate(132.000 80.000) scale(0.04200 -0.04200)" d="M253 -8Q184 -8 120.5 8.5Q57 25 20 50L72 162Q109 139 159.5 124.5Q210 110 259 110Q313 110 335.5 123.0Q358 136 358 159Q358 178 340.5 187.5Q323 197 294.0 202.0Q265 207 230.5 212.0Q196 217 161.0 225.5Q126 234 97.0 251.0Q68 268 50.5 297.0Q33 326 33 372Q33 423 62.5 462.0Q92 501 148.0 523.5Q204 546 282 546Q337 546 394.0 534.0Q451 522 489 499L437 388Q398 411 358.5 419.5Q319 428 282 428Q230 428 206.0 414.0Q182 400 182 378Q182 358 199.5 348.0Q217 338 246.0 332.0Q275 326 309.5 321.5Q344 317 379.0 308.0Q414 299 442.5 282.5Q471 266 489.0 237.5Q507 209 507 163Q507 113 477.0 74.5Q447 36 390.5 14.0Q334 -8 253 -8Z" fill="#2b2b33"/><path transform="translate(153.302 80.000) scale(0.04200 -0.04200)" d="M140 -202Q98 -202 57.0 -189.0Q16 -176 -10 -153L47 -42Q65 -58 88.5 -67.0Q112 -76 135 -76Q168 -76 187.5 -60.5Q207 -45 223 -9L225 -4L-8 538H153L304 173L456 538H606L363 -33Q337 -98 303.5 -135.0Q270 -172 229.5 -187.0Q189 -202 140 -202Z" fill="#2b2b33"/><path transform="translate(177.418 80.000) scale(0.04200 -0.04200)" d="M253 -8Q184 -8 120.5 8.5Q57 25 20 50L72 162Q109 139 159.5 124.5Q210 110 259 110Q313 110 335.5 123.0Q358 136 358 159Q358 178 340.5 187.5Q323 197 294.0 202.0Q265 207 230.5 212.0Q196 217 161.0 225.5Q126 234 97.0 251.0Q68 268 50.5 297.0Q33 326 33 372Q33 423 62.5 462.0Q92 501 148.0 523.5Q204 546 282 546Q337 546 394.0 534.0Q451 522 489 499L437 388Q398 411 358.5 419.5Q319 428 282 428Q230 428 206.0 414.0Q182 400 182 378Q182 358 199.5 348.0Q217 338 246.0 332.0Q275 326 309.5 321.5Q344 317 379.0 308.0Q414 299 442.5 282.5Q471 266 489.0 237.5Q507 209 507 163Q507 113 477.0 74.5Q447 36 390.5 14.0Q334 -8 253 -8Z" fill="#2b2b33"/><path transform="translate(198.720 80.000) scale(0.04200 -0.04200)" d="M72 0V742H228V0Z" fill="#2b2b33"/><path transform="translate(210.362 80.000) scale(0.04200 -0.04200)" d="M328 -8Q242 -8 175.5 28.0Q109 64 70.5 126.5Q32 189 32 269Q32 350 70.5 412.5Q109 475 175.5 510.5Q242 546 328 546Q413 546 480.0 510.5Q547 475 585.0 413.0Q623 351 623 269Q623 189 585.0 126.5Q547 64 480.0 28.0Q413 -8 328 -8ZM328 120Q367 120 398.0 138.0Q429 156 447.0 189.5Q465 223 465 269Q465 316 447.0 349.0Q429 382 398.0 400.0Q367 418 328 418Q289 418 258.0 400.0Q227 382 208.5 349.0Q190 316 190 269Q190 223 208.5 189.5Q227 156 258.0 138.0Q289 120 328 120Z" fill="#2b2b33"/><path transform="translate(236.872 80.000) scale(0.04200 -0.04200)" d="M325 -202Q249 -202 178.5 -183.5Q108 -165 61 -128L123 -16Q157 -44 209.5 -60.5Q262 -77 313 -77Q396 -77 433.5 -40.0Q471 -3 471 70V93Q449 69 421 54Q369 26 301 26Q226 26 165.5 58.5Q105 91 68.5 149.5Q32 208 32 286Q32 365 68.5 423.5Q105 482 165.5 514.0Q226 546 301 546Q369 546 421 519Q455 501 479 470V538H627V90Q627 -60 549.0 -131.0Q471 -202 325 -202ZM332 154Q373 154 405.0 170.5Q437 187 455.0 217.0Q473 247 473 286Q473 326 455.0 355.5Q437 385 405.0 401.5Q373 418 332.0 418.0Q291 418 259.0 401.5Q227 385 208.5 355.5Q190 326 190 286Q190 247 208.5 217.0Q227 187 259.0 170.5Q291 154 332 154Z" fill="#2b2b33"/></svg>